#!OML:ASF X:\für Bonn\!DataBase\2005_08_11_Bastian_Final\c3d\Bastian.ASF
:FULLY-SPECIFIED
:DEGREES
49
root -0.0685122 15.7755 6.88417 170.378 -8.36955 -178.35
lowerback 15.487 -2.83964 -0.517673
upperback 5.08755 -4.51859 -0.805206
thorax -3.29157 -2.51253 0.274708
lowerneck -5.36464 -7.17218 -4.84711
upperneck -7.37701 -8.36888 11.2903
head -0.671003 -3.89 4.42845
rclavicle -4.63168e-014 -1.03368e-014
rhumerus 71.3729 15.8992 -1.44118
rradius 41.0595
rwrist -52.2077
rhand -43.015 -5.88656
rfingers 7.12502
rthumb -15.8728 -35.256
lclavicle -4.63168e-014 -1.03368e-014
lhumerus 65.7952 -15.7826 -2.06753
lradius 31.1914
lwrist 2.83009
lhand -42.1286 11.9666
lfingers 7.12502
lthumb -15.019 41.4019
rfemur -19.0158 -13.284 23.4768
rtibia 65.0003
rfoot -31.2786 -7.15194
rtoes -0.670998
lfemur -19.2752 0.142662 -18.0337
ltibia 62.6549
lfoot -26.5636 -11.1018
ltoes -4.47968
50
root -0.0693691 15.6592 6.89418 170.379 -8.37544 -178.308
lowerback 15.8005 -2.84894 -0.357538
upperback 5.06861 -4.51648 -0.822034
thorax -3.49151 -2.51202 0.188577
lowerneck -5.25161 -7.22261 -4.85528
upperneck -7.57545 -8.41476 11.3115
head -0.750194 -3.91539 4.44609
rclavicle 2.5345e-014 -2.8625e-014
rhumerus 71.2853 15.6355 -1.61374
rradius 41.0711
rwrist -52.0925
rhand -43.0456 -5.79442
rfingers 7.12502
rthumb -15.9023 -35.1615
lclavicle 2.5345e-014 -2.8625e-014
lhumerus 65.6381 -15.4892 -1.52089
lradius 31.1907
lwrist 2.63334
lhand -42.3327 11.86
lfingers 7.12502
lthumb -15.2156 41.2805
rfemur -19.8993 -13.4827 23.5274
rtibia 66.6032
rfoot -31.9623 -7.11147
rtoes -0.554249
lfemur -20.2618 0.122631 -17.9884
ltibia 64.4752
lfoot -27.2805 -11.3151
ltoes -4.09543
51
root -0.0701496 15.5393 6.90361 170.388 -8.39898 -178.265
lowerback 16.0937 -2.87285 -0.223717
upperback 5.04465 -4.53422 -0.81878
thorax -3.68228 -2.52113 0.140573
lowerneck -5.15063 -7.26637 -4.88172
upperneck -7.74102 -8.45911 11.2918
head -0.817933 -3.94024 4.45154
rclavicle 1.56543e-014 -2.42517e-014
rhumerus 71.2581 15.3845 -1.72004
rradius 41.096
rwrist -52.0665
rhand -43.0853 -5.6698
rfingers 7.12502
rthumb -15.9405 -35.0338
lclavicle 1.56543e-014 -2.42517e-014
lhumerus 65.4506 -15.2212 -1.03625
lradius 31.2074
lwrist 2.56462
lhand -42.5565 11.7191
lfingers 7.12502
lthumb -15.4312 41.1231
rfemur -20.7968 -13.6785 23.5859
rtibia 68.2315
rfoot -32.6672 -7.09354
rtoes -0.439496
lfemur -21.2698 0.111772 -17.9447
ltibia 66.3134
lfoot -27.9811 -11.5147
ltoes -3.72625
52
root -0.0704708 15.4155 6.91247 170.385 -8.42341 -178.242
lowerback 16.3957 -2.89006 -0.0903605
upperback 5.03278 -4.54591 -0.845283
thorax -3.86727 -2.52835 0.0606976
lowerneck -5.08331 -7.30688 -4.86834
upperneck -7.88478 -8.4977 11.2971
head -0.87377 -3.96086 4.45661
rclavicle -2.95692e-014 7.95139e-015
rhumerus 71.1733 15.1367 -1.9647
rradius 41.1222
rwrist -51.9813
rhand -43.1303 -5.53704
rfingers 7.12502
rthumb -15.9838 -34.8976
lclavicle -2.95692e-014 7.95139e-015
lhumerus 65.3242 -14.9393 -0.605037
lradius 31.2147
lwrist 2.54326
lhand -42.8169 11.5431
lfingers 7.12502
lthumb -15.682 40.9276
rfemur -21.6954 -13.8638 23.6308
rtibia 69.8914
rfoot -33.3746 -7.12479
rtoes -0.329241
lfemur -22.2729 0.0906077 -17.9251
ltibia 68.1687
lfoot -28.7097 -11.6844
ltoes -3.49933
